<svg xmlns="http://www.w3.org/2000/svg" viewBox="0 0 512 288"><defs><style>.cls-1{fill:#f5f5f5;}.cls-2{fill:#1c9957;}.cls-3{fill:#3e7bf1;}.cls-4{fill:#cbccc9;}.cls-5{fill:#efefef;}.cls-6{fill:#ffd73d;}.cls-7{fill:#d73f35;}.cls-8{fill:#752622;}.cls-9{fill:#fff;}</style></defs><title>google-maps</title><g id="Layer_1" data-name="Layer 1"><rect class="cls-1" width="512" height="288"/></g><g id="Layer_2" data-name="Layer 2"><path class="cls-2" d="M308.8,200.1v-99a9.9,9.9,0,0,0-9.9-9.9h-99a9.9,9.9,0,0,0-9.9,9.9v99a9.9,9.9,0,0,0,9.9,9.9h99A9.9,9.9,0,0,0,308.8,200.1Z"/><path class="cls-3" d="M199.9,210h99c5.47,0-49.5-52.8-49.5-52.8S194.43,210,199.9,210Z"/><path class="cls-4" d="M308.8,200.1v-99c0-5.47-52.8,49.5-52.8,49.5S308.8,205.57,308.8,200.1Z"/><path class="cls-5" d="M298.9,210a9.9,9.9,0,0,0,9.9-9.9v-.81l-52-52L246.1,158l52,52Z"/><path class="cls-6" d="M308.8,101.1a9.9,9.9,0,0,0-9.9-9.9h-.81L190,199.29v.81a9.9,9.9,0,0,0,9.9,9.9h.81L308.8,101.91Z"/><path class="cls-7" d="M289,78a33,33,0,0,0-33,33c0,22.48,25.3,30.67,30.8,65.51.35,2.24.38,3.79,2.2,3.79s1.85-1.55,2.2-3.79c5.5-34.84,30.8-43,30.8-65.51A33,33,0,0,0,289,78Z"/><path class="cls-8" d="M289,99.45A11.55,11.55,0,1,0,300.55,111,11.55,11.55,0,0,0,289,99.45Z"/><path class="cls-9" d="M218,112.75v6.94h9.88A9.92,9.92,0,0,1,218,126.9a11,11,0,1,1,7.11-19.27l5.11-5.1A18.15,18.15,0,1,0,218,134.1c15.87,0,18.6-14.25,17.1-21.32Z"/></g></svg>