<svg id="Layer_1" data-name="Layer 1" xmlns="http://www.w3.org/2000/svg" viewBox="0 0 512 288"><defs><style>.cls-1{fill:#f5f5f5;}</style></defs><title>zastepstwa</title><rect class="cls-1" width="512" height="288"/><path d="M308.8,144V111H322v33H308.8m0,26.4V157.2H322v13.2H308.8m-66-19.8c17.62,0,52.8,8.84,52.8,26.4v19.8H190V177c0-17.56,35.18-26.4,52.8-26.4m0-59.4a26.4,26.4,0,1,1-26.4,26.4,26.4,26.4,0,0,1,26.4-26.4m0,71.94c-19.6,0-40.26,9.64-40.26,13.86v7.26h80.52V177c0-4.22-20.66-13.86-40.26-13.86m0-59.4a13.87,13.87,0,0,0-13.86,13.86h0a13.87,13.87,0,0,0,13.86,13.86h0a13.87,13.87,0,0,0,13.86-13.86h0a13.87,13.87,0,0,0-13.86-13.86Z"/></svg>