<svg id="Layer_1" data-name="Layer 1" xmlns="http://www.w3.org/2000/svg" viewBox="0 0 388.39 83.71"><defs><style>.cls-1{fill:#231f20;}.cls-1,.cls-2{fill-rule:evenodd;}.cls-2{fill:#00aeef;}.cls-3{fill:#6d6e71;}</style></defs><title>logo_plo2</title><path class="cls-1" d="M91.58,46.37c0-6.7,13.15-6.7,13.16,0v9.21c0,4-3.86,5-6,5-3.17-.08-5.6-1.7-5.22-3.38,1.59.5,7.49,1.1,7.65-1.63V46.41c-.16-2.89-5.95-2.89-6.1,0,0,1.41,0,3.24,0,4.65a2.31,2.31,0,0,0,2.26,2.14,16.18,16.18,0,0,0,3.35-.5c.38,1.68-.88,3.36-4,3.38a5,5,0,0,1-5.09-5V46.37" transform="translate(0 0.09)"/><path class="cls-1" d="M77.3,51V41.57c.16-2.91,8.27-2.91,8.43,0V51c-.16,2.9-8.27,2.9-8.43,0m-3.53-9.51v9.56c0,6.93,15.48,6.93,15.48,0V41.53C89.25,34.6,73.78,34.6,73.77,41.53Z" transform="translate(0 0.09)"/><path class="cls-1" d="M110.42,51V46.41c.16-2.91,5.77-2.91,5.93,0V51c-.16,2.9-5.77,2.9-5.93,0m-3.53-4.67v4.72c0,6.65,13,6.65,13,0V46.37C119.87,39.72,106.9,39.72,106.89,46.37Z" transform="translate(0 0.09)"/><path class="cls-1" d="M117.47,36.69,116,38.45c-1.61,1.95-2.89,1.76-4.29,1.76l1.69-3.52Z" transform="translate(0 0.09)"/><path class="cls-1" d="M162.18,36.87V47.15H164l2.64-3.65c1.65-2.23,2.45-1.9,5.49-1.9l-5.06,6.94,5.11,7c-2.4.43-3.71.57-5.46-1.85l-2.6-3.59h-1.93v5.69h-3.53c0-5.24,0-11.26,0-16.49a2.52,2.52,0,0,1,2.49-2.43Z" transform="translate(0 0.09)"/><path class="cls-1" d="M177.18,45.51c0-1.53,2.64-1.67,4.37-.95,2.68,1.1,3.59-.38,4-1.59-3-2.35-11.75-2.4-11.84,2.8s8.43,3,8.55,5.94c0,1.5-2,1.93-3.93,1.15-1.72-.7-3.15-1.82-4.86.69,2.28,3.58,12.38,3.86,12.3-1.86s-8.57-4.1-8.56-6.18" transform="translate(0 0.09)"/><path class="cls-1" d="M190,41.65h9.38c0,3-.33,3.18-2.29,5.42L191.87,53h4.72c3.07,0,2.74,1.77,2.74,2.83H187.27a5.94,5.94,0,0,1,1.84-4.94l5.58-6.38h-7.42c0-1.53.55-2.82,2.68-2.82" transform="translate(0 0.09)"/><path class="cls-1" d="M205,41.65h2.65A2.91,2.91,0,0,1,205,44.72c0,3.62-.11,7.38-.11,11.07h-3.43V39.26c0-1.69,1.42-2.4,2.83-2.4h.72c0,1.66,0,3.14,0,4.79" transform="translate(0 0.09)"/><path class="cls-1" d="M225.14,46.53H223.7a3.36,3.36,0,0,1,1.44-2.15l.06-5.06c0-1.74,1.34-2.47,2.8-2.47h.7c0,1.76,0,3.57,0,5.39h1.85A3.68,3.68,0,0,1,228.64,45c0,3.58-.08,7.16-.08,10.75h-3.43Z" transform="translate(0 0.09)"/><path class="cls-1" d="M239.91,44.66a2.19,2.19,0,0,0,2.92-1.59C240.12,40.93,232,40.41,232,45.8v6.09c0,5.39,8.17,4.86,10.88,2.72A2.19,2.19,0,0,0,239.91,53c-.85.36-4.46,1.15-4.46-1.72,0-1.64,0-3.29,0-4.94,0-2.87,3.61-2.07,4.46-1.71" transform="translate(0 0.09)"/><path class="cls-1" d="M268.16,44.7a2.2,2.2,0,0,0,2.93-1.59c-2.72-2.14-10.89-2.66-10.89,2.73v6.09c0,5.39,8.17,4.86,10.89,2.72a2.2,2.2,0,0,0-2.93-1.58c-.85.36-4.46,1.15-4.46-1.72,0-1.64,0-3.29,0-4.94,0-2.87,3.61-2.07,4.46-1.71" transform="translate(0 0.09)"/><path class="cls-1" d="M272.18,52c0,5.39,9.13,4.87,11.84,2.73a2.19,2.19,0,0,0-2.93-1.58c-.85.35-5.41,1.15-5.41-1.72,0-1.58,0-3.16,0-4.75.15-2.89,5.12-2.89,5.27,0v.78h-2.24c-1.58,0-2.32,1.21-2.32,2.9H282c1.07,0,2.51-.43,2.51-2V46.59c0-6.7-12.29-6.7-12.31,0V52" transform="translate(0 0.09)"/><path class="cls-2" d="M6.11,47.09C2.74,44.15-2.15,49.42,1,52.58H1v0a36.09,36.09,0,0,0,50.37,0c3.23-3.15-1.71-8.47-5.08-5.49-10.89,9.71-29.32,9.75-40.21,0l0,0m25.1-26c.52-4.7,7.75-4.69,8.16,0a102.56,102.56,0,0,1,0,20.43c-.41,4.69-7.75,4.69-8.16,0A105.65,105.65,0,0,1,31.21,21.09Zm-18.13,0c.52-4.7,7.75-4.69,8.16,0a102.56,102.56,0,0,1,0,20.43c-.41,4.69-7.74,4.69-8.16,0A106.45,106.45,0,0,1,13.08,21.09Zm-7-5.44c-3.37,3-8.26-2.33-5.08-5.49H1l0,0a36.09,36.09,0,0,1,50.37,0c3.23,3.15-1.71,8.48-5.08,5.49C35.44,5.93,17,5.89,6.13,15.63Z" transform="translate(0 0.09)"/><path class="cls-1" d="M128.7,14.35a2.53,2.53,0,0,1,2.5-2.44h1.05V26H128.7V14.35M130.47,7a1.88,1.88,0,1,1-1.88,1.88A1.88,1.88,0,0,1,130.47,7Z" transform="translate(0 0.09)"/><path class="cls-1" d="M143,14.74a2.21,2.21,0,0,0,3-1.59c-2.73-2.15-11-2.68-11,2.74V22c0,5.42,8.22,4.89,11,2.74a2.21,2.21,0,0,0-3-1.59c-.86.36-4.49,1.16-4.48-1.73v-5c0-2.89,3.62-2.09,4.48-1.73" transform="translate(0 0.09)"/><path class="cls-1" d="M176.14,22.06c0,5.43,9.18,4.9,11.91,2.74a2.21,2.21,0,0,0-3-1.59c-.85.36-5.44,1.16-5.44-1.73V16.71c.16-2.91,5.15-2.91,5.31,0v.79h-2.25c-1.6,0-2.34,1.21-2.34,2.91H186c1.07,0,2.52-.43,2.52-2.05V16.67c0-6.74-12.37-6.74-12.38,0v5.39" transform="translate(0 0.09)"/><path class="cls-1" d="M170.32,16.75c-.19-3.43-3.58-1.74-5.26-1.2V26h-3.55V14.35A2.54,2.54,0,0,1,164,11.91h1v1.34c3.46-2.84,8.8-2,8.81,3.46V26h-.74a2.59,2.59,0,0,1-2.81-2.48V16.75" transform="translate(0 0.09)"/><path class="cls-1" d="M149.79,11.91h9.44c0,2.95-.33,3.17-2.3,5.39l-5.2,5.86h7.51V26H147.1c-.09-1.71.07-2.91,1.85-4.92l5.61-6.36H147.1c0-1.53.55-2.81,2.69-2.81" transform="translate(0 0.09)"/><path class="cls-1" d="M125.49,7V26h-3.55V9.46C122,7.71,123.4,7,124.87,7Z" transform="translate(0 0.09)"/><path class="cls-1" d="M110,7.17V21.24c.16,2.91,6,2.91,6.14,0V16.71a2.35,2.35,0,0,0-2.28-2.15,15.8,15.8,0,0,0-3.37.5c-.38-1.7.88-3.38,4.07-3.4a5.06,5.06,0,0,1,5.13,5v4.61c0,6.74-13.23,6.74-13.24,0V9.65c0-1.75,1.46-2.48,2.92-2.48Z" transform="translate(0 0.09)"/><path class="cls-1" d="M74.68,26V6.66h7.85c3.28,0,6.56,1.68,6.57,5.06v5c0,4-3.88,5.06-6,5C79.91,21.59,78.65,20,79,18.27c1.6.51,6.37,1.11,6.52-1.64V11.76c-.08-1.45-1.52-2.18-3-2.19H78.23V26H74.68" transform="translate(0 0.09)"/><path class="cls-1" d="M94.9,21.25c.19,3.43,3.44,1.67,5.21,1.2V15.29c0-.3,0-.64,0-.94a2.53,2.53,0,0,1,2.5-2.44h1V26h-3.55v-1c-2.59,1.49-8.75,3-8.76-3.79V11.91h1a2.54,2.54,0,0,1,2.51,2.44v6.9" transform="translate(0 0.09)"/><path class="cls-1" d="M248.05,51.25a2.27,2.27,0,0,0,2.2,2.08,15.33,15.33,0,0,0,3.26-.49c.37,1.64-.85,3.27-3.93,3.29a4.88,4.88,0,0,1-5-4.84V46.48c0-2.44,1.8-4,4-4.58,3.75-1,8.74.51,8.75,4.58v9.31h-.77c-1.22.77-.24,2.42,2.21,1.79,0,1.16-.39,2.86-2.76,2.42A2.85,2.85,0,0,1,254,55.72v-9.2c-.1-1.72-2.22-2.39-3.91-2a2.3,2.3,0,0,0-2,2v4.73" transform="translate(0 0.09)"/><path class="cls-1" d="M212.47,51.25a2.27,2.27,0,0,0,2.2,2.08,15.33,15.33,0,0,0,3.26-.49c.36,1.64-.85,3.27-3.94,3.29a4.88,4.88,0,0,1-5-4.84V46.48c0-2.44,1.8-4,4.05-4.58,3.75-1,8.74.51,8.74,4.58,0,3,0,6.3,0,9.31H218.4V46.52c-.09-1.72-2.22-2.39-3.9-2a2.29,2.29,0,0,0-2,2v4.73" transform="translate(0 0.09)"/><path class="cls-1" d="M126,36.86c0,6.14-.14,12.79-.14,18.93h-3.43l0-16.53c0-1.69,1.58-2.4,3-2.4Z" transform="translate(0 0.09)"/><path class="cls-1" d="M207.11,23c3.07,0,2.74,1.84,2.74,2.9H199.56V6.62h3.53q0,8.18,0,16.36Z" transform="translate(0 0.09)"/><path class="cls-1" d="M269.05,16.64c-.19-3.35-3.38-2.29-4.73-1.19,0,2.65,0,5.47,0,8.12a2.5,2.5,0,0,1-2.5,2.47h-1V14.3a2.49,2.49,0,0,1,2.69-2.39h.84v1.26c1.94-1.5,4.6-2.06,6.51-.25,3.51-2.36,10-1.5,10,3.68V26h-1a2.51,2.51,0,0,1-2.49-2.47V16.64c-.18-3.35-3.38-2.29-4.73-1.19V26h-3.53Z" transform="translate(0 0.09)"/><path class="cls-1" d="M226.64,14.86a2.19,2.19,0,0,0,2.93-1.58c-2.72-2.14-10.89-2.67-10.89,2.72v6.09c0,5.39,8.17,4.87,10.89,2.73a2.19,2.19,0,0,0-2.93-1.58c-.85.35-4.46,1.15-4.46-1.72,0-1.65,0-3.3,0-4.94,0-2.87,3.61-2.07,4.46-1.72" transform="translate(0 0.09)"/><path class="cls-1" d="M231.08,22.12c0,5.39,9.12,4.86,11.84,2.72A2.2,2.2,0,0,0,240,23.26c-.85.36-5.41,1.15-5.41-1.72V16.8c.16-2.9,5.12-2.9,5.28,0v.78h-2.24c-1.59,0-2.32,1.21-2.32,2.9h5.58c1.07,0,2.51-.43,2.51-2V16.76c0-6.7-12.3-6.7-12.31,0v5.36" transform="translate(0 0.09)"/><path class="cls-1" d="M327.33,32.1c-3.07,0-2.74,1.83-2.74,2.89h16.59c3.07,0,2.74-1.84,2.74-2.89H327.33m0,26.33c-3.07,0-2.74,1.84-2.74,2.9h16.59c3.07,0,2.74-1.84,2.74-2.9ZM336,39.34a2.49,2.49,0,0,1,2.5-2.47h1V53.31a2.47,2.47,0,0,1-2.5,2.46h-1C336,50.18,335.93,44.93,336,39.34Zm-7,0a2.47,2.47,0,0,1,2.49-2.47h1V53.31A2.46,2.46,0,0,1,330,55.77h-1Z" transform="translate(0 0.09)"/><path class="cls-1" d="M319.05,44.61a2.44,2.44,0,0,0-3.24.55V55.79h-3.42V44a2.43,2.43,0,0,1,2.42-2.35h1V43c1.12-1.72,3.64-1.77,5.48-.58Z" transform="translate(0 0.09)"/><path class="cls-1" d="M298.6,55.79h-3.43V36.88h1.32c2.13,0,2.26.25,3.76,2.79L306.36,50V36.88h3.43V55.79h-1.32c-1.91,0-2.22-.21-3.34-2.08l-6.53-11Z" transform="translate(0 0.09)"/><path class="cls-3" d="M306.68,76.22a1.09,1.09,0,0,0-.72.23,1.52,1.52,0,0,0-.4.69v2.51a1.23,1.23,0,0,0,.37.21,1.29,1.29,0,0,0,.52.08,1.16,1.16,0,0,0,1-.48,2.81,2.81,0,0,0,.34-1.57,2.38,2.38,0,0,0-.27-1.24.93.93,0,0,0-.86-.43M304,75.06h1.15l.18.72h.05a2,2,0,0,1,.74-.67,2.22,2.22,0,0,1,1-.22,2,2,0,0,1,1.71.72,3.73,3.73,0,0,1,.57,2.31,5.05,5.05,0,0,1-.18,1.4,3,3,0,0,1-.54,1.06,2.34,2.34,0,0,1-.87.66,2.76,2.76,0,0,1-1.18.23,3.44,3.44,0,0,1-.62,0,2.34,2.34,0,0,1-.48-.18v2.48H304Zm-5.16,3a3.45,3.45,0,0,0,.07.74,2.06,2.06,0,0,0,.22.59,1,1,0,0,0,.38.39,1,1,0,0,0,.56.14,1,1,0,0,0,.92-.45,2.55,2.55,0,0,0,.3-1.41,2.76,2.76,0,0,0-.28-1.35,1,1,0,0,0-.94-.51,1.07,1.07,0,0,0-.91.43A2.42,2.42,0,0,0,298.83,78.08Zm-1.62,0a3.44,3.44,0,0,1,.74-2.36,2.69,2.69,0,0,1,2.11-.83,3.26,3.26,0,0,1,1.26.23,2.38,2.38,0,0,1,.88.65,2.64,2.64,0,0,1,.52,1,4.51,4.51,0,0,1,.18,1.31,3.44,3.44,0,0,1-.74,2.36,2.66,2.66,0,0,1-2.1.83A3,3,0,0,1,298.8,81a2.51,2.51,0,0,1-.89-.64,2.78,2.78,0,0,1-.53-1A4.52,4.52,0,0,1,297.21,78.08Zm-2.6,3V77.67a1.9,1.9,0,0,0-.22-1.06.78.78,0,0,0-.71-.33,1.15,1.15,0,0,0-.76.26,1.4,1.4,0,0,0-.44.65V81.1h-1.57v-6h1.24l.18.8h.05a2.56,2.56,0,0,1,.74-.68,2.22,2.22,0,0,1,1.18-.29,2.45,2.45,0,0,1,.8.12,1.27,1.27,0,0,1,.59.4,1.7,1.7,0,0,1,.37.75,5,5,0,0,1,.12,1.18V81.1Zm-8.87-3a3.43,3.43,0,0,0,.08.74,2.41,2.41,0,0,0,.21.59,1,1,0,0,0,.39.39,1,1,0,0,0,.56.14,1,1,0,0,0,.92-.45,2.55,2.55,0,0,0,.3-1.41,2.76,2.76,0,0,0-.28-1.35,1,1,0,0,0-.94-.51,1.07,1.07,0,0,0-.91.43A2.41,2.41,0,0,0,285.74,78.08Zm-1.62,0a3.39,3.39,0,0,1,.75-2.36,2.67,2.67,0,0,1,2.11-.83,3.17,3.17,0,0,1,1.25.23,2.34,2.34,0,0,1,.89.65,2.64,2.64,0,0,1,.52,1,4.51,4.51,0,0,1,.18,1.31,3.44,3.44,0,0,1-.74,2.36,2.66,2.66,0,0,1-2.1.83,3,3,0,0,1-1.26-.23,2.51,2.51,0,0,1-.89-.64,2.78,2.78,0,0,1-.53-1A4.51,4.51,0,0,1,284.12,78.08Zm-4.49-.59h-.44V81.1h-1.65V72.64h1.65v3.75l.39-.17,2.33-3.58h1.89l-2.47,3.55-.65.46.68.48,2.81,4h-2Zm-8.54-4.14a.83.83,0,0,1,.26-.6,1,1,0,0,1,.72-.24,1.1,1.1,0,0,1,.74.24.79.79,0,0,1,.29.6.74.74,0,0,1-.29.59,1.1,1.1,0,0,1-.74.24,1,1,0,0,1-.72-.24A.77.77,0,0,1,271.09,73.35Zm.23,1.71h1.57v6h-1.57Zm-3.48-1.71a.83.83,0,0,1,.26-.6,1,1,0,0,1,.72-.24,1.12,1.12,0,0,1,.74.24.79.79,0,0,1,.29.6.74.74,0,0,1-.29.59,1.12,1.12,0,0,1-.74.24,1,1,0,0,1-.72-.24A.77.77,0,0,1,267.84,73.35Zm.23,1.71h1.57v6h-1.57Zm-1,1.47a2,2,0,0,0-.68-.13,1.07,1.07,0,0,0-.7.22,1.12,1.12,0,0,0-.39.58v3.9h-1.57v-6h1.22l.18.8h.05a1.69,1.69,0,0,1,.56-.69,1.42,1.42,0,0,1,.82-.25,2.22,2.22,0,0,1,.71.14Zm-7.38,3.38a1.14,1.14,0,0,0,.75-.22,1.47,1.47,0,0,0,.42-.45v-.78a4.39,4.39,0,0,0-.72,0,3.18,3.18,0,0,0-.61.11,1.18,1.18,0,0,0-.43.24.57.57,0,0,0-.15.4.7.7,0,0,0,.19.53A.81.81,0,0,0,259.65,79.91Zm-2-4.5a5.21,5.21,0,0,1,1.15-.35,7.82,7.82,0,0,1,1.39-.12,3.15,3.15,0,0,1,1.05.15,1.53,1.53,0,0,1,.67.43,1.5,1.5,0,0,1,.35.66,3.35,3.35,0,0,1,.1.87c0,.36,0,.71,0,1.07s0,.71,0,1.06a8.39,8.39,0,0,0,0,1,3.41,3.41,0,0,0,.18.92h-1.28l-.26-.83h-.06a2.09,2.09,0,0,1-.67.65,2.36,2.36,0,0,1-1.87.14,1.58,1.58,0,0,1-.58-.36,1.66,1.66,0,0,1-.37-.56,1.81,1.81,0,0,1-.13-.72,1.69,1.69,0,0,1,.24-.93,1.83,1.83,0,0,1,.72-.62,3.45,3.45,0,0,1,1.11-.33,8.29,8.29,0,0,1,1.44,0,1.54,1.54,0,0,0-.09-1q-.18-.3-.81-.3a5.06,5.06,0,0,0-1,.1,3.8,3.8,0,0,0-.87.25Zm-3,1.3.18-1.68h-.08l-.52,1.36-1.8,3.15h-.53L250,76.38,249.45,75h-.06l.24,1.67v4.4h-1.57V72.64h1.51l2.26,3.87.4,1h.05l.36-1,2.14-3.84h1.5V81.1h-1.65ZM242.29,80.3a.87.87,0,0,1,.27-.67,1,1,0,0,1,.7-.24,1.05,1.05,0,0,1,.73.24A1,1,0,0,1,244,81a1,1,0,0,1-.73.26,1,1,0,0,1-.7-.26A.88.88,0,0,1,242.29,80.3Zm-6.11.8V77.81a3.23,3.23,0,0,0-.16-1.18.65.65,0,0,0-.65-.35,1,1,0,0,0-.67.22,1.42,1.42,0,0,0-.39.58v4h-1.57v-6H234l.19.8h0a2.71,2.71,0,0,1,.71-.68,2,2,0,0,1,1.11-.29,1.83,1.83,0,0,1,1,.23,1.61,1.61,0,0,1,.57.8,2.14,2.14,0,0,1,.71-.75,1.88,1.88,0,0,1,1.06-.28,2.75,2.75,0,0,1,.86.12,1.17,1.17,0,0,1,.58.42,1.92,1.92,0,0,1,.33.79,5.55,5.55,0,0,1,.11,1.26V81.1h-1.57V77.71a2.86,2.86,0,0,0-.15-1.07.65.65,0,0,0-.67-.36,1,1,0,0,0-.67.23,1.31,1.31,0,0,0-.37.63v4Zm-6.79-7.75a.83.83,0,0,1,.26-.6,1,1,0,0,1,.72-.24,1.13,1.13,0,0,1,.75.24.78.78,0,0,1,.28.6.73.73,0,0,1-.28.59,1.13,1.13,0,0,1-.75.24,1,1,0,0,1-.72-.24A.77.77,0,0,1,229.39,73.35Zm.23,1.71h1.58v6h-1.58Zm-6.54-1.71a.83.83,0,0,1,.26-.6,1,1,0,0,1,.72-.24,1.13,1.13,0,0,1,.75.24.78.78,0,0,1,.28.6.73.73,0,0,1-.28.59,1.13,1.13,0,0,1-.75.24,1,1,0,0,1-.72-.24A.77.77,0,0,1,223.08,73.35Zm.23,1.71h1.57v6h-1.57Zm-6.43,6V77.81a3,3,0,0,0-.16-1.18.64.64,0,0,0-.65-.35,1,1,0,0,0-.66.22,1.42,1.42,0,0,0-.39.58v4h-1.57v-6h1.22l.18.8h.05a2.57,2.57,0,0,1,.71-.68,1.93,1.93,0,0,1,1.1-.29,1.78,1.78,0,0,1,.95.23,1.56,1.56,0,0,1,.58.8,2.05,2.05,0,0,1,.71-.75,1.87,1.87,0,0,1,1.05-.28,2.66,2.66,0,0,1,.86.12,1.19,1.19,0,0,1,.59.42,2.07,2.07,0,0,1,.33.79,6.2,6.2,0,0,1,.11,1.26V81.1h-1.58V77.71a2.86,2.86,0,0,0-.15-1.07.64.64,0,0,0-.67-.36,1,1,0,0,0-.67.23,1.39,1.39,0,0,0-.37.63v4Zm-7-2.64.22.94h.07l.16-1,.92-3.38h1.62L211,80.51c-.16.45-.3.86-.44,1.24a5.48,5.48,0,0,1-.47,1,2.24,2.24,0,0,1-.56.64,1.21,1.21,0,0,1-.73.22,2.21,2.21,0,0,1-1-.2l.29-1.26a1,1,0,0,0,.37.07A.81.81,0,0,0,209,82a1.6,1.6,0,0,0,.4-.86l-2.53-6h1.89Zm-5.09,2.64V77.67a2,2,0,0,0-.21-1.06.79.79,0,0,0-.72-.33,1.17,1.17,0,0,0-.76.26,1.48,1.48,0,0,0-.44.65V81.1h-1.57v-6h1.25l.18.8h0a2.69,2.69,0,0,1,.74-.68,2.23,2.23,0,0,1,1.19-.29,2.49,2.49,0,0,1,.8.12,1.32,1.32,0,0,1,.59.4,1.81,1.81,0,0,1,.36.75,5,5,0,0,1,.12,1.18V81.1Zm-9.55-1.33,2.38-2.86.62-.52h-3V75.06H200v1.33l-2.36,2.91-.6.47h3V81.1h-4.74Zm-.55,1a2.49,2.49,0,0,1-.87.4,3.76,3.76,0,0,1-1.06.14,2.87,2.87,0,0,1-1.23-.23,2.14,2.14,0,0,1-.81-.64,2.84,2.84,0,0,1-.46-1,5.91,5.91,0,0,1-.14-1.31,3.59,3.59,0,0,1,.69-2.36,2.44,2.44,0,0,1,2-.83,4,4,0,0,1,1.07.11,3.16,3.16,0,0,1,.73.28l-.37,1.28a3.42,3.42,0,0,0-.55-.21,2.38,2.38,0,0,0-.63-.07,1.19,1.19,0,0,0-1,.43,2.24,2.24,0,0,0-.34,1.37,2.6,2.6,0,0,0,.09.71,1.86,1.86,0,0,0,.25.57,1.24,1.24,0,0,0,.44.38,1.34,1.34,0,0,0,.64.14,2,2,0,0,0,.68-.1,2.25,2.25,0,0,0,.49-.25Zm-7.77-2.27.22.94h.07l.16-1,.92-3.38h1.62l-1.84,5.45c-.15.45-.3.86-.44,1.24a5.48,5.48,0,0,1-.47,1,2.1,2.1,0,0,1-.56.64,1.21,1.21,0,0,1-.73.22,2.16,2.16,0,0,1-1-.2l.29-1.26a.92.92,0,0,0,.36.07.85.85,0,0,0,.54-.23,1.68,1.68,0,0,0,.39-.86l-2.53-6h1.89Zm-8,1.31,2.38-2.86.62-.52h-3V75.06h4.74v1.33l-2.36,2.91-.6.47h3V81.1h-4.74Zm-3.18-3.62a1.11,1.11,0,0,0-.91.36,1.91,1.91,0,0,0-.35,1h2.24a1.54,1.54,0,0,0-.2-1A.88.88,0,0,0,175.68,76.15Zm2.25,4.43a2.66,2.66,0,0,1-.75.41,1.1,1.1,0,0,0-.63,1,.7.7,0,0,0,.14.37.49.49,0,0,0,.38.15,1.15,1.15,0,0,0,.5-.15l.23.75a2.35,2.35,0,0,1-1.38.42,1.6,1.6,0,0,1-1-.3,1,1,0,0,1-.36-.8,1.17,1.17,0,0,1,.16-.62,1.6,1.6,0,0,1,.41-.49,3.09,3.09,0,0,1-1.24-.22,2.24,2.24,0,0,1-.87-.64,2.42,2.42,0,0,1-.5-1,4.93,4.93,0,0,1-.17-1.33,3.38,3.38,0,0,1,.76-2.39,2.79,2.79,0,0,1,2.14-.8,3.37,3.37,0,0,1,.9.12,2,2,0,0,1,.77.4,1.88,1.88,0,0,1,.55.75,3,3,0,0,1,.2,1.17,5.17,5.17,0,0,1,0,.54c0,.2-.05.4-.09.61h-3.63a1.8,1.8,0,0,0,.4,1.15,1.48,1.48,0,0,0,1.15.38,2.48,2.48,0,0,0,.89-.15,2.77,2.77,0,0,0,.6-.3Zm-8.15-7.23a.83.83,0,0,1,.26-.6,1,1,0,0,1,.72-.24,1.1,1.1,0,0,1,.74.24.79.79,0,0,1,.29.6.74.74,0,0,1-.29.59,1.1,1.1,0,0,1-.74.24,1,1,0,0,1-.72-.24A.77.77,0,0,1,169.78,73.35Zm.22,1.71h1.57v6.3a2.78,2.78,0,0,1-.44,1.68,1.64,1.64,0,0,1-1.39.58,3.58,3.58,0,0,1-.77-.09V82.22h.16a.69.69,0,0,0,.7-.35,2.34,2.34,0,0,0,.17-1Zm-5.14,0v3.43a2.54,2.54,0,0,0,.17,1.07.73.73,0,0,0,.69.32,1.09,1.09,0,0,0,.74-.26,1.57,1.57,0,0,0,.44-.66v-3.9h1.57v4.21c0,.33,0,.65.05,1a5.11,5.11,0,0,0,.15.86h-1.19l-.28-.89h0a2.37,2.37,0,0,1-.78.76,2.21,2.21,0,0,1-1.17.3,2.57,2.57,0,0,1-.82-.12,1.33,1.33,0,0,1-.61-.4,1.88,1.88,0,0,1-.37-.75,4.87,4.87,0,0,1-.12-1.18V75.06Zm-5.85,0,1.1,3.09.22,1h0l.17-1,.78-3.08h1.44l-1.87,6.1h-1.16l-1.22-3.38-.16-.76h-.06l-.14.77L157,81.16h-1.2l-1.94-6.1h1.7l.88,3,.15,1.08h.06l.2-1.09,1-3ZM149.44,74l-.53,0a3.16,3.16,0,0,0-.41,0v5.67l.16,0h.69a2.37,2.37,0,0,0,1.16-.25,1.89,1.89,0,0,0,.74-.66,2.62,2.62,0,0,0,.38-.94,5.1,5.1,0,0,0,.11-1.11,4.92,4.92,0,0,0-.1-1,2.52,2.52,0,0,0-.35-.9,2,2,0,0,0-.71-.65A2.29,2.29,0,0,0,149.44,74Zm-2.59-1.35.57-.06.66,0h1.23a5.22,5.22,0,0,1,1.92.31,3.24,3.24,0,0,1,1.3.89,3.44,3.44,0,0,1,.72,1.35,5.89,5.89,0,0,1,.23,1.73,6.15,6.15,0,0,1-.22,1.66,3.55,3.55,0,0,1-2.06,2.4,4.94,4.94,0,0,1-2,.38l-.51,0-.66,0-.66,0a3.35,3.35,0,0,1-.47,0Zm-6.45.71a.83.83,0,0,1,.26-.6,1,1,0,0,1,.72-.24,1.1,1.1,0,0,1,.74.24.79.79,0,0,1,.29.6.74.74,0,0,1-.29.59,1.1,1.1,0,0,1-.74.24,1,1,0,0,1-.72-.24A.77.77,0,0,1,140.4,73.35Zm.23,1.71h1.57v6h-1.57Zm-6.43,6V77.81a3,3,0,0,0-.16-1.18.64.64,0,0,0-.65-.35,1,1,0,0,0-.67.22,1.4,1.4,0,0,0-.38.58v4h-1.57v-6H132l.18.8h.05a2.67,2.67,0,0,1,.7-.68,2,2,0,0,1,1.11-.29,1.81,1.81,0,0,1,.95.23,1.55,1.55,0,0,1,.57.8,2.16,2.16,0,0,1,.72-.75,1.87,1.87,0,0,1,1-.28,2.66,2.66,0,0,1,.86.12,1.17,1.17,0,0,1,.58.42,2.07,2.07,0,0,1,.34.79,6.29,6.29,0,0,1,.1,1.26V81.1h-1.57V77.71a2.86,2.86,0,0,0-.15-1.07.64.64,0,0,0-.67-.36,1,1,0,0,0-.67.23,1.31,1.31,0,0,0-.37.63v4Zm-7.47-1.19a1.17,1.17,0,0,0,.75-.22,1.55,1.55,0,0,0,.41-.45v-.78a4.39,4.39,0,0,0-.72,0,3.33,3.33,0,0,0-.61.11,1.06,1.06,0,0,0-.42.24.54.54,0,0,0-.16.4.67.67,0,0,0,.2.53A.78.78,0,0,0,126.73,79.91Zm-2-4.5a5.39,5.39,0,0,1,1.15-.35,7.9,7.9,0,0,1,1.39-.12,3.15,3.15,0,0,1,1,.15,1.47,1.47,0,0,1,.67.43,1.52,1.52,0,0,1,.36.66,3.85,3.85,0,0,1,.1.87c0,.36,0,.71,0,1.07s0,.71,0,1.06,0,.68,0,1a3.41,3.41,0,0,0,.18.92H128.3l-.25-.83H128a2.23,2.23,0,0,1-.68.65,2.34,2.34,0,0,1-1.86.14,1.5,1.5,0,0,1-.58-.36,1.68,1.68,0,0,1-.38-.56,1.81,1.81,0,0,1-.13-.72,1.61,1.61,0,0,1,.25-.93,1.73,1.73,0,0,1,.71-.62,3.45,3.45,0,0,1,1.11-.33,8.37,8.37,0,0,1,1.45,0,1.6,1.6,0,0,0-.1-1q-.18-.3-.81-.3a5.13,5.13,0,0,0-1,.1,3.56,3.56,0,0,0-.86.25Zm-4.43,2,1-.64V72.64h1.57V75.7l1.16-.78v1.52l-1.16.76v1.87a1.37,1.37,0,0,0,.11.62.37.37,0,0,0,.35.19l.29,0a1.85,1.85,0,0,0,.34-.11l.17,1.23a3,3,0,0,1-.59.2,3.75,3.75,0,0,1-.82.09,1.54,1.54,0,0,1-1.06-.32,1.34,1.34,0,0,1-.36-1.06V78.23l-1,.62Zm-3.43,2.52a1.14,1.14,0,0,0,.75-.22,1.47,1.47,0,0,0,.42-.45v-.78a4.39,4.39,0,0,0-.72,0,3.18,3.18,0,0,0-.61.11,1.18,1.18,0,0,0-.43.24.57.57,0,0,0-.15.4.7.7,0,0,0,.19.53A.81.81,0,0,0,116.87,79.91Zm-2-4.5a5.21,5.21,0,0,1,1.15-.35,7.82,7.82,0,0,1,1.39-.12,3.15,3.15,0,0,1,1,.15,1.53,1.53,0,0,1,.67.43,1.5,1.5,0,0,1,.35.66,3.34,3.34,0,0,1,.11.87c0,.36,0,.71,0,1.07s0,.71,0,1.06a8.39,8.39,0,0,0,0,1,3.41,3.41,0,0,0,.18.92h-1.28l-.26-.83h-.06a2.09,2.09,0,0,1-.67.65,2,2,0,0,1-1.11.27,2.06,2.06,0,0,1-.76-.13,1.58,1.58,0,0,1-.58-.36,1.66,1.66,0,0,1-.37-.56,1.81,1.81,0,0,1-.13-.72,1.69,1.69,0,0,1,.24-.93,1.83,1.83,0,0,1,.72-.62,3.45,3.45,0,0,1,1.11-.33,8.29,8.29,0,0,1,1.44,0,1.54,1.54,0,0,0-.09-1q-.18-.3-.81-.3a5.06,5.06,0,0,0-1,.1,3.8,3.8,0,0,0-.87.25Zm-3.31-2.06a.79.79,0,0,1,.26-.6,1,1,0,0,1,.72-.24,1.12,1.12,0,0,1,.74.24.78.78,0,0,1,.28.6.73.73,0,0,1-.28.59,1.12,1.12,0,0,1-.74.24,1,1,0,0,1-.72-.24A.74.74,0,0,1,111.57,73.35Zm.23,1.71h1.57v6H111.8Zm-6,4.71,2.38-2.86.62-.52h-3V75.06h4.74v1.33l-2.36,2.91-.6.47h3V81.1h-4.74Zm-3.73.17a1.07,1.07,0,0,0,.72-.22,1.27,1.27,0,0,0,.38-.65V76.51a1.16,1.16,0,0,0-.38-.2,1.54,1.54,0,0,0-.53-.07,1.17,1.17,0,0,0-1,.45,2.68,2.68,0,0,0-.33,1.54,2.48,2.48,0,0,0,.27,1.24A.93.93,0,0,0,102.08,79.94Zm2.67-1c0,.33,0,.67,0,1a9.82,9.82,0,0,0,.11,1.12h-1.12l-.22-.78h0a1.76,1.76,0,0,1-.7.68,2,2,0,0,1-1.07.26,2.18,2.18,0,0,1-1.76-.75,3.6,3.6,0,0,1-.63-2.34,3.7,3.7,0,0,1,.7-2.41,2.51,2.51,0,0,1,2.06-.86,3.32,3.32,0,0,1,.61,0,2.22,2.22,0,0,1,.49.13V72.64h1.57Zm-9.19,1a1.1,1.1,0,0,0,.73-.22,1.26,1.26,0,0,0,.37-.65V76.51a1.11,1.11,0,0,0-.37-.2,1.65,1.65,0,0,0-.54-.07,1.15,1.15,0,0,0-1,.45,2.67,2.67,0,0,0-.34,1.54,2.37,2.37,0,0,0,.28,1.24A.93.93,0,0,0,95.56,79.94Zm2.67-1c0,.33,0,.67,0,1a9.82,9.82,0,0,0,.11,1.12H97.23L97,80.33H97a1.8,1.8,0,0,1-.69.68,2,2,0,0,1-1.07.26,2.18,2.18,0,0,1-1.77-.75,3.6,3.6,0,0,1-.63-2.34,3.7,3.7,0,0,1,.71-2.41,2.49,2.49,0,0,1,2-.86,3.44,3.44,0,0,1,.62,0,2.14,2.14,0,0,1,.48.13V72.64h1.57ZM86.51,76.87a6.18,6.18,0,0,0,.1,1.18A3.28,3.28,0,0,0,87,79a1.82,1.82,0,0,0,.57.6,1.59,1.59,0,0,0,.84.22,1.57,1.57,0,0,0,1.36-.69,4,4,0,0,0,.49-2.24,6,6,0,0,0-.11-1.15,3.19,3.19,0,0,0-.32-.93,1.62,1.62,0,0,0-.57-.62,1.54,1.54,0,0,0-.85-.22,1.56,1.56,0,0,0-1.37.7A4,4,0,0,0,86.51,76.87Zm-1.75,0a5,5,0,0,1,.94-3.26,3.23,3.23,0,0,1,2.66-1.14,3.71,3.71,0,0,1,1.58.32,2.79,2.79,0,0,1,1.12.89,4,4,0,0,1,.67,1.39,7.16,7.16,0,0,1,.22,1.8A5,5,0,0,1,91,80.13a3.25,3.25,0,0,1-2.65,1.14,3.74,3.74,0,0,1-1.6-.31,3,3,0,0,1-1.12-.9A4.08,4.08,0,0,1,85,78.67,7.16,7.16,0,0,1,84.76,76.87Zm-8.16,2.9L79,76.91l.61-.52h-3V75.06h4.74v1.33L79,79.3l-.61.47h3V81.1H76.6Z" transform="translate(0 0.09)"/><path class="cls-3" d="M384.58,75.06v3.43a2.54,2.54,0,0,0,.17,1.07.73.73,0,0,0,.69.32,1.11,1.11,0,0,0,.74-.26,1.67,1.67,0,0,0,.44-.66v-3.9h1.57v4.21c0,.33,0,.65.05,1a5.11,5.11,0,0,0,.15.86H387.2l-.28-.89h-.05a2.24,2.24,0,0,1-.77.76,2.21,2.21,0,0,1-1.17.3,2.57,2.57,0,0,1-.82-.12,1.28,1.28,0,0,1-.61-.4,1.88,1.88,0,0,1-.37-.75,4.87,4.87,0,0,1-.12-1.18V75.06Zm-3.45,4a1.37,1.37,0,0,0,.11.62.37.37,0,0,0,.35.19l.29,0a1.85,1.85,0,0,0,.34-.11l.17,1.23a3,3,0,0,1-.59.2,3.77,3.77,0,0,1-.83.09,1.52,1.52,0,0,1-1.05-.32,1.34,1.34,0,0,1-.36-1.06V72.64h1.57Zm-6.78-1a3.45,3.45,0,0,0,.07.74,2.06,2.06,0,0,0,.22.59,1,1,0,0,0,.38.39,1.17,1.17,0,0,0,1.48-.31,2.55,2.55,0,0,0,.3-1.41,2.89,2.89,0,0,0-.27-1.35,1,1,0,0,0-.95-.51,1.05,1.05,0,0,0-.9.43A2.41,2.41,0,0,0,374.35,78.08Zm-1.62,0a3.39,3.39,0,0,1,.75-2.36,2.66,2.66,0,0,1,2.1-.83,3.19,3.19,0,0,1,1.26.23,2.3,2.3,0,0,1,.88.65,2.66,2.66,0,0,1,.53,1,4.52,4.52,0,0,1,.17,1.31,3.39,3.39,0,0,1-.74,2.36,2.65,2.65,0,0,1-2.1.83,3,3,0,0,1-1.25-.23,2.34,2.34,0,0,1-.89-.64,2.8,2.8,0,0,1-.54-1A4.89,4.89,0,0,1,372.73,78.08Zm-3.54-1.86a1.05,1.05,0,0,0-.72.23,1.44,1.44,0,0,0-.41.69v2.51a1.53,1.53,0,0,0,.37.21,1.31,1.31,0,0,0,.53.08,1.15,1.15,0,0,0,1-.48,2.73,2.73,0,0,0,.34-1.57,2.49,2.49,0,0,0-.26-1.24A.94.94,0,0,0,369.19,76.22Zm-2.7-1.16h1.15l.18.72h.05a2,2,0,0,1,.74-.67,2.26,2.26,0,0,1,1.05-.22,2,2,0,0,1,1.7.72,3.73,3.73,0,0,1,.57,2.31,5.05,5.05,0,0,1-.18,1.4,3,3,0,0,1-.54,1.06,2.34,2.34,0,0,1-.87.66,2.73,2.73,0,0,1-1.18.23,3.32,3.32,0,0,1-.61,0,2.43,2.43,0,0,1-.49-.18v2.48h-1.57Zm-6.59,1.81a6.15,6.15,0,0,0,.11,1.18,3,3,0,0,0,.33.93,1.75,1.75,0,0,0,.58.6,1.69,1.69,0,0,0,2.2-.47,4,4,0,0,0,.48-2.24,6,6,0,0,0-.1-1.15,3.51,3.51,0,0,0-.32-.93,1.8,1.8,0,0,0-.57-.62,1.71,1.71,0,0,0-2.22.48A3.92,3.92,0,0,0,359.9,76.87Zm-1.74,0a5,5,0,0,1,.93-3.26,3.24,3.24,0,0,1,2.66-1.14,3.76,3.76,0,0,1,1.59.32,2.86,2.86,0,0,1,1.12.89,4,4,0,0,1,.67,1.39,7.17,7.17,0,0,1,.21,1.8,5,5,0,0,1-.93,3.26,3.25,3.25,0,0,1-2.66,1.14,3.73,3.73,0,0,1-1.59-.31,2.91,2.91,0,0,1-1.12-.9,3.74,3.74,0,0,1-.66-1.39A6.73,6.73,0,0,1,358.16,76.87Zm-6.72-1.81,1.1,3.09.22,1h.05l.17-1,.77-3.08h1.44l-1.86,6.1h-1.17l-1.22-3.38-.15-.76h-.06l-.15.77-1.16,3.37h-1.2l-1.94-6.1H348l.88,3,.15,1.08h.06l.21-1.09,1-3Zm-10.59-1.71a.83.83,0,0,1,.26-.6,1,1,0,0,1,.72-.24,1.12,1.12,0,0,1,.74.24.79.79,0,0,1,.29.6.74.74,0,0,1-.29.59,1.12,1.12,0,0,1-.74.24,1,1,0,0,1-.72-.24A.77.77,0,0,1,340.85,73.35Zm.22,1.71h1.57v6.3A2.78,2.78,0,0,1,342.2,83a1.64,1.64,0,0,1-1.39.58,3.58,3.58,0,0,1-.77-.09V82.22h.16a.7.7,0,0,0,.7-.35,2.34,2.34,0,0,0,.17-1Zm-3.7,1.09a1.13,1.13,0,0,0-.92.36,1.91,1.91,0,0,0-.35,1h2.25a1.54,1.54,0,0,0-.2-1A.88.88,0,0,0,337.37,76.15Zm2.25,4.43a3,3,0,0,1-1,.49,4.1,4.1,0,0,1-1.32.2,2.55,2.55,0,0,1-2.14-.85,3.68,3.68,0,0,1-.68-2.34,3.33,3.33,0,0,1,.76-2.39,2.79,2.79,0,0,1,2.14-.8,3.37,3.37,0,0,1,.9.12,2,2,0,0,1,.77.4,1.77,1.77,0,0,1,.54.75,2.85,2.85,0,0,1,.21,1.17,5.17,5.17,0,0,1,0,.54c0,.2,0,.4-.09.61h-3.63a1.85,1.85,0,0,0,.39,1.15,1.52,1.52,0,0,0,1.16.38,2.48,2.48,0,0,0,.89-.15,2.77,2.77,0,0,0,.6-.3Zm-8.19-7.23a.83.83,0,0,1,.26-.6,1,1,0,0,1,.72-.24,1.1,1.1,0,0,1,.74.24.79.79,0,0,1,.29.6.74.74,0,0,1-.29.59,1.1,1.1,0,0,1-.74.24,1,1,0,0,1-.72-.24A.77.77,0,0,1,331.43,73.35Zm.23,1.71h1.57v6h-1.57Zm-4.07,3.54h-.43v2.5h-1.57V72.64h1.57v5l.37-.17,1.37-2.4h1.73l-1.45,2.3-.61.45.66.48,1.63,2.81h-1.8Zm-2.95,2.13a2.54,2.54,0,0,1-.88.4,3.72,3.72,0,0,1-1.06.14,2.8,2.8,0,0,1-1.22-.23,2.1,2.1,0,0,1-.82-.64,2.67,2.67,0,0,1-.45-1,5.37,5.37,0,0,1-.14-1.31,3.59,3.59,0,0,1,.69-2.36,2.42,2.42,0,0,1,2-.83,3.9,3.9,0,0,1,1.07.11,3,3,0,0,1,.73.28l-.37,1.28a3.42,3.42,0,0,0-.55-.21,2.35,2.35,0,0,0-.62-.07,1.16,1.16,0,0,0-1,.43,2.17,2.17,0,0,0-.34,1.37,3.08,3.08,0,0,0,.08.71,1.66,1.66,0,0,0,.26.57,1.16,1.16,0,0,0,.44.38,1.27,1.27,0,0,0,.63.14,2,2,0,0,0,.68-.1,2.25,2.25,0,0,0,.49-.25ZM317,73.35a.79.79,0,0,1,.26-.6,1,1,0,0,1,.72-.24,1.12,1.12,0,0,1,.74.24.79.79,0,0,1,.29.6.74.74,0,0,1-.29.59,1.12,1.12,0,0,1-.74.24,1,1,0,0,1-.72-.24A.74.74,0,0,1,317,73.35Zm.23,1.71h1.57v6h-1.57Zm-3,6V77.67a2,2,0,0,0-.22-1.06.79.79,0,0,0-.72-.33,1.14,1.14,0,0,0-.75.26,1.4,1.4,0,0,0-.44.65V81.1h-1.57v-6h1.24l.18.8H312a2.56,2.56,0,0,1,.74-.68,2.19,2.19,0,0,1,1.18-.29,2.45,2.45,0,0,1,.8.12,1.32,1.32,0,0,1,.59.4,1.82,1.82,0,0,1,.37.75,5,5,0,0,1,.12,1.18V81.1Z" transform="translate(0 0.09)"/><path class="cls-1" d="M249,21.25c.18,3.43,3.44,1.67,5.21,1.2V15.29c0-.3,0-.64,0-.94a2.53,2.53,0,0,1,2.5-2.44h1.05V26h-3.55v-1c-2.59,1.49-8.75,3-8.76-3.79V11.91h1A2.55,2.55,0,0,1,249,14.35v6.9" transform="translate(0 0.09)"/><path class="cls-1" d="M212.15,14.19a2.53,2.53,0,0,1,2.5-2.44h1V25.88h-3.55V14.19m1.77-7.38A1.88,1.88,0,1,1,212,8.69,1.88,1.88,0,0,1,213.92,6.81Z" transform="translate(0 0.09)"/><path class="cls-1" d="M137.64,46.5c-.19-3.44-3.58-1.74-5.25-1.21,0,3.5,0,7,0,10.5h-3.55V44.1a2.55,2.55,0,0,1,2.52-2.44h1V43c3.45-2.84,8.79-2,8.8,3.46v9.33h-.74a2.59,2.59,0,0,1-2.81-2.49V46.5" transform="translate(0 0.09)"/><path class="cls-1" d="M146.73,51V46.41c.16-2.91,5.77-2.91,5.93,0V51c-.16,2.9-5.77,2.9-5.93,0m-3.53-4.67v4.72c0,6.65,13,6.65,13,0V46.37C156.18,39.72,143.22,39.72,143.2,46.37Z" transform="translate(0 0.09)"/></svg>