<svg id="Layer_4" data-name="Layer 4" xmlns="http://www.w3.org/2000/svg" viewBox="0 0 313.88 62.93"><defs><style>.cls-1{fill:#00aeef;fill-rule:evenodd;}.cls-2{font-size:24px;fill:#231f20;font-family:Roboto-Bold, Roboto;font-weight:700;}</style></defs><title>banner</title><path class="cls-1" d="M6.11,49C2.74,46-2.15,51.28,1,54.44H1v0a36.09,36.09,0,0,0,50.37,0C54.65,51.3,49.71,46,46.34,49,35.45,58.67,17,58.71,6.13,49l0,0m25.1-26c.52-4.7,7.75-4.69,8.16,0a102.56,102.56,0,0,1,0,20.43c-.41,4.69-7.75,4.69-8.16,0A105.65,105.65,0,0,1,31.21,23ZM13.08,23c.52-4.7,7.75-4.69,8.16,0a102.56,102.56,0,0,1,0,20.43c-.41,4.69-7.74,4.69-8.16,0A106.45,106.45,0,0,1,13.08,23Zm-7-5.44C2.74,20.46-2.15,15.18,1,12H1l0,0a36.09,36.09,0,0,1,50.37,0c3.23,3.15-1.71,8.48-5.08,5.49C35.44,7.79,17,7.75,6.13,17.49,6.12,17.5,6.11,17.5,6.11,17.51Z" transform="translate(0 -1.77)"/><text class="cls-2" transform="translate(68.47 23.06)">Publiczne Liceum<tspan x="0" y="28.8">Ogólnokształcące Nr II</tspan></text></svg>