<?xml version="1.0" encoding="UTF-8" standalone="no"?>
<!-- Created with Inkscape (http://www.inkscape.org/) -->

<svg
   xmlns:dc="http://purl.org/dc/elements/1.1/"
   xmlns:cc="http://creativecommons.org/ns#"
   xmlns:rdf="http://www.w3.org/1999/02/22-rdf-syntax-ns#"
   xmlns:svg="http://www.w3.org/2000/svg"
   xmlns="http://www.w3.org/2000/svg"
   xmlns:xlink="http://www.w3.org/1999/xlink"
   version="1.0"
   width="331.47836"
   height="388.66479"
   viewBox="0 0 536.22711 1237.6193"
   id="svg2"
   xml:space="preserve"><metadata
   id="metadata45"><rdf:RDF><cc:Work
       rdf:about=""><dc:format>image/svg+xml</dc:format><dc:type
         rdf:resource="http://purl.org/dc/dcmitype/StillImage" /><dc:title></dc:title></cc:Work></rdf:RDF></metadata>
 <defs
   id="defs4">
  <style
   type="text/css"
   id="style6" />
  <linearGradient
   x1="384.267"
   y1="618.80798"
   x2="623.04901"
   y2="618.80798"
   id="id0"
   gradientUnits="userSpaceOnUse">
   <stop
   id="stop9"
   style="stop-color:#da251d;stop-opacity:1"
   offset="0" />
   <stop
   id="stop11"
   style="stop-color:#89211b;stop-opacity:1"
   offset="0.50196099" />
  </linearGradient>
 <linearGradient
   x1="384.267"
   y1="618.80798"
   x2="623.04901"
   y2="618.80798"
   id="linearGradient2335"
   xlink:href="#id0"
   gradientUnits="userSpaceOnUse" /><linearGradient
   x1="384.267"
   y1="618.80798"
   x2="623.04901"
   y2="618.80798"
   id="linearGradient2405"
   xlink:href="#id0"
   gradientUnits="userSpaceOnUse" /><linearGradient
   x1="384.267"
   y1="618.80798"
   x2="623.04901"
   y2="618.80798"
   id="linearGradient3056"
   xlink:href="#id0"
   gradientUnits="userSpaceOnUse" />
  
  
  
 <linearGradient
   x1="384.267"
   y1="618.80798"
   x2="623.04901"
   y2="618.80798"
   id="linearGradient3088"
   xlink:href="#id0"
   gradientUnits="userSpaceOnUse"
   gradientTransform="matrix(3.1826893,0,0,3.1826893,-1334.8767,-1350.6617)" /></defs>
 
<rect
   width="3486.0752"
   height="1237.6199"
   x="-857.53802"
   y="-0.00064429396"
   id="rect2339"
   style="fill:#ffffff;fill-opacity:1;fill-rule:nonzero;stroke:none" /><path
   d="m -259.6465,1018.0644 839.22742,0 216.29174,219.5549 0,-704.65061 -1055.5198,0 0,485.09601 6.4e-4,-3e-4 z M 288.91864,151.47532 c -12.40615,0 -22.47017,10.06402 -22.47017,22.47768 l 0,134.05774 c 0,0.0904 0.0255,0.16932 0.0255,0.25939 0.14291,50.62831 41.35396,91.77921 92.03478,91.77921 50.7674,0 92.07234,-41.28998 92.07234,-92.0386 0,-50.77122 -41.30494,-92.05356 -92.07234,-92.05356 -17.22576,0 -33.31225,4.84214 -47.10571,13.10539 l 0,-55.10954 c 0,-12.41366 -10.05274,-22.47768 -22.48522,-22.47768 l 0,-3e-5 z m 69.59108,109.43741 c 25.98152,0 47.09077,21.13557 47.09077,47.09839 0,25.97396 -21.10925,47.08311 -47.09077,47.08311 -25.95517,0 -47.1057,-21.10925 -47.1057,-47.08311 0,-25.96269 21.1506,-47.09839 47.1057,-47.09839 l 0,0 z m 138.30982,-44.78999 c -12.43248,0 -22.48523,10.07907 -22.48523,22.48144 l 0,76.85431 c 0,27.25594 3.83463,65.41063 36.95166,82.0911 11.08658,5.57149 24.60929,1.09777 30.19208,-9.98508 5.56773,-11.10539 1.09777,-24.60178 -9.98884,-30.18453 -3.01506,-1.50755 -12.19938,-6.15796 -12.19938,-41.92143 l 0,-76.85431 c 0,-12.4024 -10.04899,-22.48143 -22.47016,-22.48143 l -1.3e-4,-7e-5 z m 0.0127,-64.55703 c -13.67685,0 -24.7371,11.0678 -24.7371,24.7371 0,13.65428 11.06025,24.70703 24.7371,24.70703 13.63925,0 24.72583,-11.05275 24.72583,-24.70703 0,-13.66933 -11.08658,-24.7371 -24.72583,-24.7371 z m 115.90718,284.87138 0,-49.60571 c 13.79339,8.267 29.87625,13.10163 47.09075,13.10163 50.75625,0 92.04623,-41.28234 92.04623,-92.04624 0,-50.75243 -41.28998,-92.04624 -92.04623,-92.04624 -50.75626,0 -92.0612,41.29381 -92.0612,92.04624 l 0,128.55042 c 0,12.42117 10.06401,22.47016 22.48522,22.47016 12.42118,0 22.48523,-10.04899 22.48523,-22.47016 l 0,-10e-5 z M 659.8302,260.79974 c 25.95518,0 47.09075,21.12052 47.09075,47.08694 0,25.96645 -21.13557,47.08693 -47.09075,47.08693 -25.9815,0 -47.09075,-21.12052 -47.09075,-47.08693 0,-25.96645 21.10925,-47.08694 47.09075,-47.08694 l 0,0 z M -259.64555,0 l 0,45.816404 1055.5198,0 0,-45.816404 -1055.5198,0 z"
   id="path2345"
   style="fill:url(#linearGradient3088);fill-rule:evenodd" /></svg>