<?xml version="1.0" encoding="utf-8"?>
<!-- Generator: Adobe Illustrator 22.0.1, SVG Export Plug-In . SVG Version: 6.00 Build 0)  -->
<svg version="1.1" id="Layer_1" xmlns="http://www.w3.org/2000/svg" xmlns:xlink="http://www.w3.org/1999/xlink" x="0px" y="0px"
	 viewBox="0 0 24 24" style="enable-background:new 0 0 24 24;" xml:space="preserve">
<style type="text/css">
	.st0{fill:none;stroke:#000000;stroke-width:2;stroke-miterlimit:10;}
	.st1{fill:#FFFFFF;stroke:#000000;stroke-miterlimit:10;}
</style>
<title>replacement</title>
<g id="Layer_1_1_">
	<path class="st0" d="M18.1,1.9H6.3c-1.7,0-3.1,1.5-3.1,3.3l0,0v17.6L7,18h11.1c1.8,0,3.2-1.5,3.1-3.3l0,0V5.3
		C21.3,3.5,19.9,2,18.1,1.9z"/>
</g>
<path class="st1" d="M16.6,9.9"/>
<path d="M8.2,8.8h2.6V6.3h3.1v2.6h2.6V12h-2.6v2.6h-3.1V12H8.2V8.8 M11.9,10.9v2.6h1v-2.6h2.6v-1h-2.6V7.3h-1v2.6H9.3v1H11.9z"/>
</svg>
